<svg width="17" height="16" viewBox="0 0 17 16" fill="none" xmlns="http://www.w3.org/2000/svg">
<g clip-path="url(#clip0_88_156)">
<path d="M10.8732 11.7541C12.9905 10.2261 13.4683 7.27127 11.9402 5.1539C10.4122 3.03653 7.45736 2.55883 5.33999 4.08686C3.22262 5.61489 2.74491 8.56972 4.27294 10.6871C5.80097 12.8045 8.75609 13.282 10.8732 11.7541Z" fill="white"/>
<path d="M9.50466 6.60233L7.52454 6.28221C7.43187 6.26787 7.33729 6.2906 7.26126 6.34547C7.18522 6.40034 7.13385 6.48294 7.11826 6.5754C7.10384 6.66814 7.12656 6.76282 7.18148 6.83893C7.2364 6.91503 7.31911 6.96643 7.41166 6.98197L8.54677 7.16548L6.55706 8.60138C6.40007 8.71467 6.36353 8.93913 6.47703 9.09641C6.59053 9.25369 6.81507 9.28973 6.97206 9.17644L8.96177 7.74054L8.77826 8.87564C8.76384 8.96838 8.78656 9.06307 8.84148 9.13917C8.8964 9.21527 8.97911 9.26667 9.07166 9.28221C9.17067 9.29822 9.26271 9.27246 9.33574 9.21975C9.37355 9.19264 9.4056 9.15827 9.43001 9.11866C9.45442 9.07905 9.47071 9.03498 9.47794 8.98901L9.79806 7.00889C9.81248 6.91615 9.78976 6.82147 9.73484 6.74537C9.67992 6.66926 9.59721 6.61787 9.50466 6.60233Z" fill="#1E1E1E"/>
</g>
<defs>
<clipPath id="clip0_88_156">
<rect width="11.3467" height="11.3467" fill="white" transform="translate(0.186035 6.64001) rotate(-35.8166)"/>
</clipPath>
</defs>
</svg>
