<svg width="46" height="46" viewBox="0 0 46 46" fill="none" xmlns="http://www.w3.org/2000/svg">
<rect width="46" height="46" fill="#1E1E1E"/>
<g id="MacBook Pro 16&#34; - 1" clip-path="url(#clip0_0_1)">
<rect width="1728" height="6395" transform="translate(-1527 -71)" fill="white"/>
<g id="Group 13">
<g id="Link">
<rect x="-160" y="-7" width="234" height="66" rx="33" fill="#F8BB15"/>
</g>
<g id="Link_2">
<rect x="-161" y="-10" width="234" height="66" rx="33" fill="#34A853"/>
<g id="SVG" clip-path="url(#clip1_0_1)">
<path id="Vector" d="M30.6425 33.8116C36.6139 29.5023 37.9611 21.169 33.6518 15.1976C29.3424 9.22619 21.0092 7.87898 15.0377 12.1883C9.0663 16.4977 7.71909 24.8309 12.0284 30.8024C16.3378 36.7738 24.6719 38.1204 30.6425 33.8116Z" fill="white"/>
<path id="Vector_2" d="M26.7832 19.2825L21.1989 18.3796C20.9375 18.3392 20.6708 18.4033 20.4564 18.5581C20.2419 18.7128 20.097 18.9458 20.0531 19.2065C20.0124 19.4681 20.0765 19.7351 20.2314 19.9497C20.3863 20.1644 20.6195 20.3093 20.8805 20.3531L24.0818 20.8707L18.4704 24.9202C18.0276 25.2397 17.9246 25.8727 18.2447 26.3163C18.5648 26.7598 19.198 26.8615 19.6408 26.542L25.2521 22.4924L24.7346 25.6937C24.694 25.9552 24.758 26.2222 24.9129 26.4369C25.0678 26.6515 25.301 26.7964 25.5621 26.8403C25.8413 26.8854 26.1009 26.8128 26.3068 26.6641C26.4135 26.5877 26.5038 26.4908 26.5727 26.379C26.6415 26.2673 26.6875 26.143 26.7079 26.0134L27.6107 20.4291C27.6513 20.1675 27.5873 19.9005 27.4324 19.6859C27.2775 19.4712 27.0442 19.3263 26.7832 19.2825Z" fill="#1E1E1E"/>
</g>
</g>
</g>
</g>
<defs>
<clipPath id="clip0_0_1">
<rect width="1728" height="6395" fill="white" transform="translate(-1527 -71)"/>
</clipPath>
<clipPath id="clip1_0_1">
<rect width="32" height="32" fill="white" transform="translate(0.502686 19.3888) rotate(-35.8166)"/>
</clipPath>
</defs>
</svg>
